<svg id="Слой_1" data-name="Слой 1" xmlns="http://www.w3.org/2000/svg" viewBox="0 0 51.97 59.06"><defs><style>.cls-1{fill:none;stroke:#000;stroke-miterlimit:10;stroke-width:0.06px;}</style></defs><title>Стенд</title><path class="cls-1" d="M319.87,434.24H290.25m33,0h-2.95m2.95-25.72v25.72m0-25.72H309.84m-.47,0H307m0,3.54v-3.54m-16.75,3.54H307m-16.75-20.29v20.29m19.11-20.29H290.25m19.11,16.75V391.77m.47,16.75V391.77m24.3,0h-24.3m24.3,17.7v-17.7m3.54,17.7h-3.54M337.68,428V409.47m3.54,24.43-3.54-5.9m3.54,13.83V433.9m-3.54,12.69,3.54-4.76m-3.54,8v-3.22m-17.34,3.22h17.34m-17.34-15.57v15.57m-.47-15.57v15.57m0,0H290.25m0-15.57v15.57m-.47-16v16.52m0,0h48.37m0,0v-3.54m0,0,3.54-4.76m0,0v-8.22m0,0-3.54-5.9m0-18.88v18.88M334.61,409h3.54m-3.54-17.7V409m0-17.7H289.78m0,0v21.24m0,0h17.7m0,0V409m0,0h15.34m0,0v24.78m0,0h-33" transform="translate(-289.75 -391.27)"/></svg>